{
	"asset":{
		"generator":"Khronos glTF Blender I/O v3.5.30",
		"version":"2.0"
	},
	"extensionsUsed":[
		"KHR_lights_punctual"
	],
	"extensionsRequired":[
		"KHR_lights_punctual"
	],
	"extensions":{
		"KHR_lights_punctual":{
			"lights":[
				{
					"color":[
						1,
						1,
						1
					],
					"intensity":1.3660000648815185,
					"type":"directional",
					"name":"sun"
				},
				{
					"color":[
						1,
						1,
						1
					],
					"intensity":0.3415000162203796,
					"type":"directional",
					"name":"reflect"
				}
			]
		}
	},
	"scene":0,
	"scenes":[
		{
			"name":"Scene",
			"nodes":[
				0,
				1,
				2,
				3,
				13,
				16
			]
		}
	],
	"nodes":[
		{
			"mesh":0,
			"name":"ground"
		},
		{
			"extensions":{
				"KHR_lights_punctual":{
					"light":0
				}
			},
			"name":"Sun",
			"rotation":[
				-0.8598043322563171,
				0.11895841360092163,
				-0.23034268617630005,
				0.43991804122924805
			],
			"translation":[
				27.253408432006836,
				81.49815368652344,
				-44.548831939697266
			]
		},
		{
			"extensions":{
				"KHR_lights_punctual":{
					"light":1
				}
			},
			"name":"Point",
			"rotation":[
				-0.7314322590827942,
				-0.4125117063522339,
				0.1996414214372635,
				0.5049596428871155
			],
			"translation":[
				-147.4042510986328,
				91.06305694580078,
				-59.87887191772461
			]
		},
		{
			"mesh":1,
			"name":"Cube.001"
		},
		{
			"mesh":2,
			"name":"Cube"
		},
		{
			"mesh":3,
			"name":"Cube.002"
		},
		{
			"mesh":4,
			"name":"Cube.003",
			"translation":[
				-6.6823272705078125,
				0,
				0.131026029586792
			]
		},
		{
			"mesh":5,
			"name":"Cube.004"
		},
		{
			"mesh":6,
			"name":"Cube.005"
		},
		{
			"mesh":7,
			"name":"Cube.006"
		},
		{
			"mesh":8,
			"name":"slope"
		},
		{
			"mesh":9,
			"name":"slope.001",
			"rotation":[
				0,
				-0.3826834261417389,
				0,
				0.9238795638084412
			],
			"scale":[
				3.34574294090271,
				17.74383544921875,
				3.34574294090271
			],
			"translation":[
				-106.51271057128906,
				-9.056429862976074,
				-17.916704177856445
			]
		},
		{
			"mesh":10,
			"name":"slope.002",
			"rotation":[
				0,
				-0.3826834261417389,
				0,
				0.9238795638084412
			],
			"scale":[
				3.34574294090271,
				17.74383544921875,
				3.34574294090271
			],
			"translation":[
				-106.65646362304688,
				-9.056429862976074,
				18.548595428466797
			]
		},
		{
			"children":[
				4,
				5,
				6,
				7,
				8,
				9,
				10,
				11,
				12
			],
			"name":"hull"
		},
		{
			"mesh":11,
			"name":"block"
		},
		{
			"mesh":12,
			"name":"goal.001"
		},
		{
			"children":[
				14,
				15
			],
			"name":"goal"
		}
	],
	"materials":[
		{
			"doubleSided":true,
			"name":"maptext",
			"pbrMetallicRoughness":{
				"baseColorTexture":{
					"index":0
				},
				"metallicFactor":0,
				"roughnessFactor":0.5
			}
		}
	],
	"meshes":[
		{
			"name":"Cube",
			"primitives":[
				{
					"attributes":{
						"POSITION":0,
						"TEXCOORD_0":1,
						"NORMAL":2
					},
					"indices":3,
					"material":0
				}
			]
		},
		{
			"name":"Cube.013",
			"primitives":[
				{
					"attributes":{
						"POSITION":4,
						"TEXCOORD_0":5,
						"NORMAL":6
					},
					"indices":7,
					"material":0
				}
			]
		},
		{
			"name":"Cube.002",
			"primitives":[
				{
					"attributes":{
						"POSITION":8,
						"TEXCOORD_0":9,
						"NORMAL":10
					},
					"indices":11
				}
			]
		},
		{
			"name":"Cube.004",
			"primitives":[
				{
					"attributes":{
						"POSITION":12,
						"TEXCOORD_0":13,
						"NORMAL":14
					},
					"indices":11
				}
			]
		},
		{
			"name":"Cube.005",
			"primitives":[
				{
					"attributes":{
						"POSITION":15,
						"TEXCOORD_0":16,
						"NORMAL":17
					},
					"indices":18
				}
			]
		},
		{
			"name":"Cube.006",
			"primitives":[
				{
					"attributes":{
						"POSITION":19,
						"TEXCOORD_0":20,
						"NORMAL":21
					},
					"indices":18
				}
			]
		},
		{
			"name":"Cube.007",
			"primitives":[
				{
					"attributes":{
						"POSITION":22,
						"TEXCOORD_0":23,
						"NORMAL":24
					},
					"indices":25
				}
			]
		},
		{
			"name":"Cube.008",
			"primitives":[
				{
					"attributes":{
						"POSITION":26,
						"TEXCOORD_0":27,
						"NORMAL":28
					},
					"indices":25
				}
			]
		},
		{
			"name":"Cube.010",
			"primitives":[
				{
					"attributes":{
						"POSITION":29,
						"TEXCOORD_0":30,
						"NORMAL":31
					},
					"indices":11
				}
			]
		},
		{
			"name":"Cube.014",
			"primitives":[
				{
					"attributes":{
						"POSITION":32,
						"TEXCOORD_0":33,
						"NORMAL":34
					},
					"indices":35
				}
			]
		},
		{
			"name":"Cube.015",
			"primitives":[
				{
					"attributes":{
						"POSITION":36,
						"TEXCOORD_0":37,
						"NORMAL":38
					},
					"indices":35
				}
			]
		},
		{
			"name":"Cube.011",
			"primitives":[
				{
					"attributes":{
						"POSITION":39,
						"TEXCOORD_0":40,
						"NORMAL":41
					},
					"indices":35
				}
			]
		},
		{
			"name":"Cube.012",
			"primitives":[
				{
					"attributes":{
						"POSITION":42,
						"TEXCOORD_0":43,
						"NORMAL":44
					},
					"indices":35
				}
			]
		}
	],
	"textures":[
		{
			"sampler":0,
			"source":0
		}
	],
	"images":[
		{
			"mimeType":"image/png",
			"name":"map",
			"uri":"map.png"
		}
	],
	"accessors":[
		{
			"bufferView":0,
			"componentType":5126,
			"count":177,
			"max":[
				19.617090225219727,
				10.739089012145996,
				19.77490997314453
			],
			"min":[
				-116.29914093017578,
				-22.980436325073242,
				-19.774906158447266
			],
			"type":"VEC3"
		},
		{
			"bufferView":1,
			"componentType":5126,
			"count":177,
			"type":"VEC2"
		},
		{
			"bufferView":2,
			"componentType":5126,
			"count":177,
			"type":"VEC3"
		},
		{
			"bufferView":3,
			"componentType":5123,
			"count":348,
			"type":"SCALAR"
		},
		{
			"bufferView":4,
			"componentType":5126,
			"count":76,
			"max":[
				-105.74263000488281,
				-1.7814521789550781,
				18.379562377929688
			],
			"min":[
				-107.59336853027344,
				-21.223651885986328,
				-18.199138641357422
			],
			"type":"VEC3"
		},
		{
			"bufferView":5,
			"componentType":5126,
			"count":76,
			"type":"VEC2"
		},
		{
			"bufferView":6,
			"componentType":5126,
			"count":76,
			"type":"VEC3"
		},
		{
			"bufferView":7,
			"componentType":5123,
			"count":168,
			"type":"SCALAR"
		},
		{
			"bufferView":8,
			"componentType":5126,
			"count":24,
			"max":[
				19.575883865356445,
				-2.7874085903167725,
				19.759323120117188
			],
			"min":[
				-19.94276237487793,
				-4.763344764709473,
				-19.759323120117188
			],
			"type":"VEC3"
		},
		{
			"bufferView":9,
			"componentType":5126,
			"count":24,
			"type":"VEC2"
		},
		{
			"bufferView":10,
			"componentType":5126,
			"count":24,
			"type":"VEC3"
		},
		{
			"bufferView":11,
			"componentType":5123,
			"count":36,
			"type":"SCALAR"
		},
		{
			"bufferView":12,
			"componentType":5126,
			"count":24,
			"max":[
				-63.89788818359375,
				-21.0865535736084,
				19.759319305419922
			],
			"min":[
				-112.78900146484375,
				-23.062488555908203,
				-19.759326934814453
			],
			"type":"VEC3"
		},
		{
			"bufferView":13,
			"componentType":5126,
			"count":24,
			"type":"VEC2"
		},
		{
			"bufferView":14,
			"componentType":5126,
			"count":24,
			"type":"VEC3"
		},
		{
			"bufferView":15,
			"componentType":5126,
			"count":24,
			"max":[
				-108.11688232421875,
				26.47100830078125,
				19.75932502746582
			],
			"min":[
				-110.09284210205078,
				-22.420114517211914,
				-19.75932502746582
			],
			"type":"VEC3"
		},
		{
			"bufferView":16,
			"componentType":5126,
			"count":24,
			"type":"VEC2"
		},
		{
			"bufferView":17,
			"componentType":5126,
			"count":24,
			"type":"VEC3"
		},
		{
			"bufferView":18,
			"componentType":5123,
			"count":36,
			"type":"SCALAR"
		},
		{
			"bufferView":19,
			"componentType":5126,
			"count":24,
			"max":[
				19.797657012939453,
				45.87281036376953,
				19.75933074951172
			],
			"min":[
				17.82170295715332,
				-3.0183122158050537,
				-19.759319305419922
			],
			"type":"VEC3"
		},
		{
			"bufferView":20,
			"componentType":5126,
			"count":24,
			"type":"VEC2"
		},
		{
			"bufferView":21,
			"componentType":5126,
			"count":24,
			"type":"VEC3"
		},
		{
			"bufferView":22,
			"componentType":5126,
			"count":24,
			"max":[
				34.691741943359375,
				46.951629638671875,
				-17.731407165527344
			],
			"min":[
				-131.81336975097656,
				-22.712846755981445,
				-19.707372665405273
			],
			"type":"VEC3"
		},
		{
			"bufferView":23,
			"componentType":5126,
			"count":24,
			"type":"VEC2"
		},
		{
			"bufferView":24,
			"componentType":5126,
			"count":24,
			"type":"VEC3"
		},
		{
			"bufferView":25,
			"componentType":5123,
			"count":36,
			"type":"SCALAR"
		},
		{
			"bufferView":26,
			"componentType":5126,
			"count":24,
			"max":[
				36.735740661621094,
				46.951629638671875,
				19.375106811523438
			],
			"min":[
				-129.76937866210938,
				-22.71285057067871,
				17.399141311645508
			],
			"type":"VEC3"
		},
		{
			"bufferView":27,
			"componentType":5126,
			"count":24,
			"type":"VEC2"
		},
		{
			"bufferView":28,
			"componentType":5126,
			"count":24,
			"type":"VEC3"
		},
		{
			"bufferView":29,
			"componentType":5126,
			"count":24,
			"max":[
				-19.176979064941406,
				-2.8224363327026367,
				21.760271072387695
			],
			"min":[
				-69.9145736694336,
				-23.777137756347656,
				-21.760272979736328
			],
			"type":"VEC3"
		},
		{
			"bufferView":30,
			"componentType":5126,
			"count":24,
			"type":"VEC2"
		},
		{
			"bufferView":31,
			"componentType":5126,
			"count":24,
			"type":"VEC3"
		},
		{
			"bufferView":32,
			"componentType":5126,
			"count":24,
			"max":[
				1,
				1,
				1
			],
			"min":[
				-1,
				-1,
				-1
			],
			"type":"VEC3"
		},
		{
			"bufferView":33,
			"componentType":5126,
			"count":24,
			"type":"VEC2"
		},
		{
			"bufferView":34,
			"componentType":5126,
			"count":24,
			"type":"VEC3"
		},
		{
			"bufferView":35,
			"componentType":5123,
			"count":36,
			"type":"SCALAR"
		},
		{
			"bufferView":36,
			"componentType":5126,
			"count":24,
			"max":[
				1,
				1,
				1
			],
			"min":[
				-1,
				-1,
				-1
			],
			"type":"VEC3"
		},
		{
			"bufferView":37,
			"componentType":5126,
			"count":24,
			"type":"VEC2"
		},
		{
			"bufferView":38,
			"componentType":5126,
			"count":24,
			"type":"VEC3"
		},
		{
			"bufferView":39,
			"componentType":5126,
			"count":24,
			"max":[
				-105.81803894042969,
				5.111082077026367,
				21.83519172668457
			],
			"min":[
				-108.55891418457031,
				-21.302812576293945,
				-22.953115463256836
			],
			"type":"VEC3"
		},
		{
			"bufferView":40,
			"componentType":5126,
			"count":24,
			"type":"VEC2"
		},
		{
			"bufferView":41,
			"componentType":5126,
			"count":24,
			"type":"VEC3"
		},
		{
			"bufferView":42,
			"componentType":5126,
			"count":24,
			"max":[
				-111.53364562988281,
				4.97135591506958,
				21.688282012939453
			],
			"min":[
				-114.27452087402344,
				-21.44253921508789,
				-23.100025177001953
			],
			"type":"VEC3"
		},
		{
			"bufferView":43,
			"componentType":5126,
			"count":24,
			"type":"VEC2"
		},
		{
			"bufferView":44,
			"componentType":5126,
			"count":24,
			"type":"VEC3"
		}
	],
	"bufferViews":[
		{
			"buffer":0,
			"byteLength":2124,
			"byteOffset":0,
			"target":34962
		},
		{
			"buffer":0,
			"byteLength":1416,
			"byteOffset":2124,
			"target":34962
		},
		{
			"buffer":0,
			"byteLength":2124,
			"byteOffset":3540,
			"target":34962
		},
		{
			"buffer":0,
			"byteLength":696,
			"byteOffset":5664,
			"target":34963
		},
		{
			"buffer":0,
			"byteLength":912,
			"byteOffset":6360,
			"target":34962
		},
		{
			"buffer":0,
			"byteLength":608,
			"byteOffset":7272,
			"target":34962
		},
		{
			"buffer":0,
			"byteLength":912,
			"byteOffset":7880,
			"target":34962
		},
		{
			"buffer":0,
			"byteLength":336,
			"byteOffset":8792,
			"target":34963
		},
		{
			"buffer":0,
			"byteLength":288,
			"byteOffset":9128,
			"target":34962
		},
		{
			"buffer":0,
			"byteLength":192,
			"byteOffset":9416,
			"target":34962
		},
		{
			"buffer":0,
			"byteLength":288,
			"byteOffset":9608,
			"target":34962
		},
		{
			"buffer":0,
			"byteLength":72,
			"byteOffset":9896,
			"target":34963
		},
		{
			"buffer":0,
			"byteLength":288,
			"byteOffset":9968,
			"target":34962
		},
		{
			"buffer":0,
			"byteLength":192,
			"byteOffset":10256,
			"target":34962
		},
		{
			"buffer":0,
			"byteLength":288,
			"byteOffset":10448,
			"target":34962
		},
		{
			"buffer":0,
			"byteLength":288,
			"byteOffset":10736,
			"target":34962
		},
		{
			"buffer":0,
			"byteLength":192,
			"byteOffset":11024,
			"target":34962
		},
		{
			"buffer":0,
			"byteLength":288,
			"byteOffset":11216,
			"target":34962
		},
		{
			"buffer":0,
			"byteLength":72,
			"byteOffset":11504,
			"target":34963
		},
		{
			"buffer":0,
			"byteLength":288,
			"byteOffset":11576,
			"target":34962
		},
		{
			"buffer":0,
			"byteLength":192,
			"byteOffset":11864,
			"target":34962
		},
		{
			"buffer":0,
			"byteLength":288,
			"byteOffset":12056,
			"target":34962
		},
		{
			"buffer":0,
			"byteLength":288,
			"byteOffset":12344,
			"target":34962
		},
		{
			"buffer":0,
			"byteLength":192,
			"byteOffset":12632,
			"target":34962
		},
		{
			"buffer":0,
			"byteLength":288,
			"byteOffset":12824,
			"target":34962
		},
		{
			"buffer":0,
			"byteLength":72,
			"byteOffset":13112,
			"target":34963
		},
		{
			"buffer":0,
			"byteLength":288,
			"byteOffset":13184,
			"target":34962
		},
		{
			"buffer":0,
			"byteLength":192,
			"byteOffset":13472,
			"target":34962
		},
		{
			"buffer":0,
			"byteLength":288,
			"byteOffset":13664,
			"target":34962
		},
		{
			"buffer":0,
			"byteLength":288,
			"byteOffset":13952,
			"target":34962
		},
		{
			"buffer":0,
			"byteLength":192,
			"byteOffset":14240,
			"target":34962
		},
		{
			"buffer":0,
			"byteLength":288,
			"byteOffset":14432,
			"target":34962
		},
		{
			"buffer":0,
			"byteLength":288,
			"byteOffset":14720,
			"target":34962
		},
		{
			"buffer":0,
			"byteLength":192,
			"byteOffset":15008,
			"target":34962
		},
		{
			"buffer":0,
			"byteLength":288,
			"byteOffset":15200,
			"target":34962
		},
		{
			"buffer":0,
			"byteLength":72,
			"byteOffset":15488,
			"target":34963
		},
		{
			"buffer":0,
			"byteLength":288,
			"byteOffset":15560,
			"target":34962
		},
		{
			"buffer":0,
			"byteLength":192,
			"byteOffset":15848,
			"target":34962
		},
		{
			"buffer":0,
			"byteLength":288,
			"byteOffset":16040,
			"target":34962
		},
		{
			"buffer":0,
			"byteLength":288,
			"byteOffset":16328,
			"target":34962
		},
		{
			"buffer":0,
			"byteLength":192,
			"byteOffset":16616,
			"target":34962
		},
		{
			"buffer":0,
			"byteLength":288,
			"byteOffset":16808,
			"target":34962
		},
		{
			"buffer":0,
			"byteLength":288,
			"byteOffset":17096,
			"target":34962
		},
		{
			"buffer":0,
			"byteLength":192,
			"byteOffset":17384,
			"target":34962
		},
		{
			"buffer":0,
			"byteLength":288,
			"byteOffset":17576,
			"target":34962
		}
	],
	"samplers":[
		{
			"magFilter":9729,
			"minFilter":9987
		}
	],
	"buffers":[
		{
			"byteLength":17864,
			"uri":"map1.bin"
		}
	]
}
