{
	"asset":{
		"generator":"Khronos glTF Blender I/O v3.5.30",
		"version":"2.0"
	},
	"extensionsUsed":[
		"KHR_lights_punctual"
	],
	"extensionsRequired":[
		"KHR_lights_punctual"
	],
	"extensions":{
		"KHR_lights_punctual":{
			"lights":[
				{
					"color":[
						1,
						1,
						1
					],
					"intensity":1.3660000648815185,
					"type":"directional",
					"name":"sun"
				},
				{
					"color":[
						1,
						1,
						1
					],
					"intensity":0.3415000162203796,
					"type":"directional",
					"name":"reflect"
				}
			]
		}
	},
	"scene":0,
	"scenes":[
		{
			"name":"Scene",
			"nodes":[
				0,
				1,
				2,
				10
			]
		}
	],
	"nodes":[
		{
			"mesh":0,
			"name":"ground"
		},
		{
			"extensions":{
				"KHR_lights_punctual":{
					"light":0
				}
			},
			"name":"Sun",
			"rotation":[
				-0.8598043322563171,
				0.11895841360092163,
				-0.23034268617630005,
				0.43991804122924805
			],
			"translation":[
				27.253408432006836,
				81.49815368652344,
				-44.548831939697266
			]
		},
		{
			"extensions":{
				"KHR_lights_punctual":{
					"light":1
				}
			},
			"name":"Point",
			"rotation":[
				-0.7314322590827942,
				-0.4125117063522339,
				0.1996414214372635,
				0.5049596428871155
			],
			"translation":[
				-147.4042510986328,
				91.06305694580078,
				-59.87887191772461
			]
		},
		{
			"mesh":1,
			"name":"Cube"
		},
		{
			"mesh":2,
			"name":"Cube.002"
		},
		{
			"mesh":3,
			"name":"Cube.003"
		},
		{
			"mesh":4,
			"name":"Cube.004"
		},
		{
			"mesh":5,
			"name":"Cube.005"
		},
		{
			"mesh":6,
			"name":"Cube.006"
		},
		{
			"mesh":7,
			"name":"slope"
		},
		{
			"children":[
				3,
				4,
				5,
				6,
				7,
				8,
				9
			],
			"name":"hull"
		}
	],
	"materials":[
		{
			"doubleSided":true,
			"name":"maptext",
			"pbrMetallicRoughness":{
				"baseColorTexture":{
					"index":0
				},
				"metallicFactor":0,
				"roughnessFactor":0.5
			}
		}
	],
	"meshes":[
		{
			"name":"Cube",
			"primitives":[
				{
					"attributes":{
						"POSITION":0,
						"TEXCOORD_0":1,
						"NORMAL":2
					},
					"indices":3,
					"material":0
				}
			]
		},
		{
			"name":"Cube.002",
			"primitives":[
				{
					"attributes":{
						"POSITION":4,
						"TEXCOORD_0":5,
						"NORMAL":6
					},
					"indices":7
				}
			]
		},
		{
			"name":"Cube.004",
			"primitives":[
				{
					"attributes":{
						"POSITION":8,
						"TEXCOORD_0":9,
						"NORMAL":10
					},
					"indices":7
				}
			]
		},
		{
			"name":"Cube.005",
			"primitives":[
				{
					"attributes":{
						"POSITION":11,
						"TEXCOORD_0":12,
						"NORMAL":13
					},
					"indices":14
				}
			]
		},
		{
			"name":"Cube.006",
			"primitives":[
				{
					"attributes":{
						"POSITION":15,
						"TEXCOORD_0":16,
						"NORMAL":17
					},
					"indices":14
				}
			]
		},
		{
			"name":"Cube.007",
			"primitives":[
				{
					"attributes":{
						"POSITION":18,
						"TEXCOORD_0":19,
						"NORMAL":20
					},
					"indices":21
				}
			]
		},
		{
			"name":"Cube.008",
			"primitives":[
				{
					"attributes":{
						"POSITION":22,
						"TEXCOORD_0":23,
						"NORMAL":24
					},
					"indices":21
				}
			]
		},
		{
			"name":"Cube.010",
			"primitives":[
				{
					"attributes":{
						"POSITION":25,
						"TEXCOORD_0":26,
						"NORMAL":27
					},
					"indices":7
				}
			]
		}
	],
	"textures":[
		{
			"sampler":0,
			"source":0
		}
	],
	"images":[
		{
			"mimeType":"image/png",
			"name":"map",
			"uri":"map.png"
		}
	],
	"accessors":[
		{
			"bufferView":0,
			"componentType":5126,
			"count":124,
			"max":[
				19.617090225219727,
				10.739089012145996,
				19.77490997314453
			],
			"min":[
				-109.7993392944336,
				-22.980436325073242,
				-19.774906158447266
			],
			"type":"VEC3"
		},
		{
			"bufferView":1,
			"componentType":5126,
			"count":124,
			"type":"VEC2"
		},
		{
			"bufferView":2,
			"componentType":5126,
			"count":124,
			"type":"VEC3"
		},
		{
			"bufferView":3,
			"componentType":5123,
			"count":228,
			"type":"SCALAR"
		},
		{
			"bufferView":4,
			"componentType":5126,
			"count":24,
			"max":[
				19.575883865356445,
				-2.7874085903167725,
				19.759323120117188
			],
			"min":[
				-19.94276237487793,
				-4.763344764709473,
				-19.759323120117188
			],
			"type":"VEC3"
		},
		{
			"bufferView":5,
			"componentType":5126,
			"count":24,
			"type":"VEC2"
		},
		{
			"bufferView":6,
			"componentType":5126,
			"count":24,
			"type":"VEC3"
		},
		{
			"bufferView":7,
			"componentType":5123,
			"count":36,
			"type":"SCALAR"
		},
		{
			"bufferView":8,
			"componentType":5126,
			"count":24,
			"max":[
				-63.89788818359375,
				-21.0865535736084,
				19.759319305419922
			],
			"min":[
				-112.78900146484375,
				-23.062488555908203,
				-19.759326934814453
			],
			"type":"VEC3"
		},
		{
			"bufferView":9,
			"componentType":5126,
			"count":24,
			"type":"VEC2"
		},
		{
			"bufferView":10,
			"componentType":5126,
			"count":24,
			"type":"VEC3"
		},
		{
			"bufferView":11,
			"componentType":5126,
			"count":24,
			"max":[
				-108.11688232421875,
				26.47100830078125,
				19.75932502746582
			],
			"min":[
				-110.09284210205078,
				-22.420114517211914,
				-19.75932502746582
			],
			"type":"VEC3"
		},
		{
			"bufferView":12,
			"componentType":5126,
			"count":24,
			"type":"VEC2"
		},
		{
			"bufferView":13,
			"componentType":5126,
			"count":24,
			"type":"VEC3"
		},
		{
			"bufferView":14,
			"componentType":5123,
			"count":36,
			"type":"SCALAR"
		},
		{
			"bufferView":15,
			"componentType":5126,
			"count":24,
			"max":[
				19.797657012939453,
				45.87281036376953,
				19.75933074951172
			],
			"min":[
				17.82170295715332,
				-3.0183122158050537,
				-19.759319305419922
			],
			"type":"VEC3"
		},
		{
			"bufferView":16,
			"componentType":5126,
			"count":24,
			"type":"VEC2"
		},
		{
			"bufferView":17,
			"componentType":5126,
			"count":24,
			"type":"VEC3"
		},
		{
			"bufferView":18,
			"componentType":5126,
			"count":24,
			"max":[
				34.691741943359375,
				46.951629638671875,
				-17.731407165527344
			],
			"min":[
				-131.81336975097656,
				-22.712846755981445,
				-19.707372665405273
			],
			"type":"VEC3"
		},
		{
			"bufferView":19,
			"componentType":5126,
			"count":24,
			"type":"VEC2"
		},
		{
			"bufferView":20,
			"componentType":5126,
			"count":24,
			"type":"VEC3"
		},
		{
			"bufferView":21,
			"componentType":5123,
			"count":36,
			"type":"SCALAR"
		},
		{
			"bufferView":22,
			"componentType":5126,
			"count":24,
			"max":[
				36.735740661621094,
				46.951629638671875,
				19.375106811523438
			],
			"min":[
				-129.76937866210938,
				-22.71285057067871,
				17.399141311645508
			],
			"type":"VEC3"
		},
		{
			"bufferView":23,
			"componentType":5126,
			"count":24,
			"type":"VEC2"
		},
		{
			"bufferView":24,
			"componentType":5126,
			"count":24,
			"type":"VEC3"
		},
		{
			"bufferView":25,
			"componentType":5126,
			"count":24,
			"max":[
				-19.176979064941406,
				-2.8224363327026367,
				21.760271072387695
			],
			"min":[
				-69.9145736694336,
				-23.777137756347656,
				-21.760272979736328
			],
			"type":"VEC3"
		},
		{
			"bufferView":26,
			"componentType":5126,
			"count":24,
			"type":"VEC2"
		},
		{
			"bufferView":27,
			"componentType":5126,
			"count":24,
			"type":"VEC3"
		}
	],
	"bufferViews":[
		{
			"buffer":0,
			"byteLength":1488,
			"byteOffset":0,
			"target":34962
		},
		{
			"buffer":0,
			"byteLength":992,
			"byteOffset":1488,
			"target":34962
		},
		{
			"buffer":0,
			"byteLength":1488,
			"byteOffset":2480,
			"target":34962
		},
		{
			"buffer":0,
			"byteLength":456,
			"byteOffset":3968,
			"target":34963
		},
		{
			"buffer":0,
			"byteLength":288,
			"byteOffset":4424,
			"target":34962
		},
		{
			"buffer":0,
			"byteLength":192,
			"byteOffset":4712,
			"target":34962
		},
		{
			"buffer":0,
			"byteLength":288,
			"byteOffset":4904,
			"target":34962
		},
		{
			"buffer":0,
			"byteLength":72,
			"byteOffset":5192,
			"target":34963
		},
		{
			"buffer":0,
			"byteLength":288,
			"byteOffset":5264,
			"target":34962
		},
		{
			"buffer":0,
			"byteLength":192,
			"byteOffset":5552,
			"target":34962
		},
		{
			"buffer":0,
			"byteLength":288,
			"byteOffset":5744,
			"target":34962
		},
		{
			"buffer":0,
			"byteLength":288,
			"byteOffset":6032,
			"target":34962
		},
		{
			"buffer":0,
			"byteLength":192,
			"byteOffset":6320,
			"target":34962
		},
		{
			"buffer":0,
			"byteLength":288,
			"byteOffset":6512,
			"target":34962
		},
		{
			"buffer":0,
			"byteLength":72,
			"byteOffset":6800,
			"target":34963
		},
		{
			"buffer":0,
			"byteLength":288,
			"byteOffset":6872,
			"target":34962
		},
		{
			"buffer":0,
			"byteLength":192,
			"byteOffset":7160,
			"target":34962
		},
		{
			"buffer":0,
			"byteLength":288,
			"byteOffset":7352,
			"target":34962
		},
		{
			"buffer":0,
			"byteLength":288,
			"byteOffset":7640,
			"target":34962
		},
		{
			"buffer":0,
			"byteLength":192,
			"byteOffset":7928,
			"target":34962
		},
		{
			"buffer":0,
			"byteLength":288,
			"byteOffset":8120,
			"target":34962
		},
		{
			"buffer":0,
			"byteLength":72,
			"byteOffset":8408,
			"target":34963
		},
		{
			"buffer":0,
			"byteLength":288,
			"byteOffset":8480,
			"target":34962
		},
		{
			"buffer":0,
			"byteLength":192,
			"byteOffset":8768,
			"target":34962
		},
		{
			"buffer":0,
			"byteLength":288,
			"byteOffset":8960,
			"target":34962
		},
		{
			"buffer":0,
			"byteLength":288,
			"byteOffset":9248,
			"target":34962
		},
		{
			"buffer":0,
			"byteLength":192,
			"byteOffset":9536,
			"target":34962
		},
		{
			"buffer":0,
			"byteLength":288,
			"byteOffset":9728,
			"target":34962
		}
	],
	"samplers":[
		{
			"magFilter":9729,
			"minFilter":9987
		}
	],
	"buffers":[
		{
			"byteLength":10016,
			"uri":"map1.bin"
		}
	]
}
