{
	"asset":{
		"generator":"Khronos glTF Blender I/O v3.5.30",
		"version":"2.0"
	},
	"extensionsUsed":[
		"KHR_lights_punctual"
	],
	"extensionsRequired":[
		"KHR_lights_punctual"
	],
	"extensions":{
		"KHR_lights_punctual":{
			"lights":[
				{
					"color":[
						1,
						1,
						1
					],
					"intensity":1.3660000648815185,
					"type":"directional",
					"name":"sun"
				},
				{
					"color":[
						1,
						1,
						1
					],
					"intensity":0.3415000162203796,
					"type":"directional",
					"name":"reflect"
				}
			]
		}
	},
	"scene":0,
	"scenes":[
		{
			"name":"Scene",
			"nodes":[
				0,
				1,
				2,
				3,
				16,
				19
			]
		}
	],
	"nodes":[
		{
			"mesh":0,
			"name":"ground"
		},
		{
			"extensions":{
				"KHR_lights_punctual":{
					"light":0
				}
			},
			"name":"Sun",
			"rotation":[
				-0.8598043322563171,
				0.11895841360092163,
				-0.23034268617630005,
				0.43991804122924805
			],
			"translation":[
				27.253408432006836,
				81.49815368652344,
				-44.548831939697266
			]
		},
		{
			"extensions":{
				"KHR_lights_punctual":{
					"light":1
				}
			},
			"name":"Point",
			"rotation":[
				-0.7314322590827942,
				-0.4125117063522339,
				0.1996414214372635,
				0.5049596428871155
			],
			"translation":[
				-147.4042510986328,
				91.06305694580078,
				-59.87887191772461
			]
		},
		{
			"mesh":1,
			"name":"Cube.001",
			"rotation":[
				0,
				-0.7071068286895752,
				0,
				0.7071068286895752
			],
			"translation":[
				-51.380645751953125,
				8.559783935546875,
				74.9413833618164
			]
		},
		{
			"mesh":2,
			"name":"Cube"
		},
		{
			"mesh":3,
			"name":"Cube.002"
		},
		{
			"mesh":4,
			"name":"Cube.004"
		},
		{
			"mesh":5,
			"name":"Cube.005"
		},
		{
			"mesh":6,
			"name":"Cube.007"
		},
		{
			"mesh":7,
			"name":"Cube.008"
		},
		{
			"mesh":8,
			"name":"slope"
		},
		{
			"mesh":9,
			"name":"slope.001"
		},
		{
			"mesh":10,
			"name":"slope.002"
		},
		{
			"mesh":11,
			"name":"slope.003"
		},
		{
			"mesh":12,
			"name":"slope.004"
		},
		{
			"mesh":13,
			"name":"slope.005"
		},
		{
			"children":[
				4,
				5,
				6,
				7,
				8,
				9,
				10,
				11,
				12,
				13,
				14,
				15
			],
			"name":"hull"
		},
		{
			"mesh":14,
			"name":"block"
		},
		{
			"mesh":15,
			"name":"goal.001"
		},
		{
			"children":[
				17,
				18
			],
			"name":"goal"
		}
	],
	"materials":[
		{
			"doubleSided":true,
			"name":"maptext",
			"pbrMetallicRoughness":{
				"baseColorTexture":{
					"index":0
				},
				"metallicFactor":0,
				"roughnessFactor":0.5
			}
		}
	],
	"meshes":[
		{
			"name":"Cube",
			"primitives":[
				{
					"attributes":{
						"POSITION":0,
						"TEXCOORD_0":1,
						"NORMAL":2
					},
					"indices":3,
					"material":0
				}
			]
		},
		{
			"name":"Cube.013",
			"primitives":[
				{
					"attributes":{
						"POSITION":4,
						"TEXCOORD_0":5,
						"NORMAL":6
					},
					"indices":7,
					"material":0
				}
			]
		},
		{
			"name":"Cube.002",
			"primitives":[
				{
					"attributes":{
						"POSITION":8,
						"TEXCOORD_0":9,
						"NORMAL":10
					},
					"indices":11
				}
			]
		},
		{
			"name":"Cube.001",
			"primitives":[
				{
					"attributes":{
						"POSITION":12,
						"TEXCOORD_0":13,
						"NORMAL":14
					},
					"indices":15
				}
			]
		},
		{
			"name":"Cube.006",
			"primitives":[
				{
					"attributes":{
						"POSITION":16,
						"TEXCOORD_0":17,
						"NORMAL":18
					},
					"indices":19
				}
			]
		},
		{
			"name":"Cube.003",
			"primitives":[
				{
					"attributes":{
						"POSITION":20,
						"TEXCOORD_0":21,
						"NORMAL":22
					},
					"indices":15
				}
			]
		},
		{
			"name":"Cube.016",
			"primitives":[
				{
					"attributes":{
						"POSITION":23,
						"TEXCOORD_0":24,
						"NORMAL":25
					},
					"indices":26
				}
			]
		},
		{
			"name":"Cube.017",
			"primitives":[
				{
					"attributes":{
						"POSITION":27,
						"TEXCOORD_0":28,
						"NORMAL":29
					},
					"indices":30
				}
			]
		},
		{
			"name":"Cube.018",
			"primitives":[
				{
					"attributes":{
						"POSITION":31,
						"TEXCOORD_0":32,
						"NORMAL":33
					},
					"indices":34
				}
			]
		},
		{
			"name":"Cube.014",
			"primitives":[
				{
					"attributes":{
						"POSITION":35,
						"TEXCOORD_0":36,
						"NORMAL":37
					},
					"indices":30
				}
			]
		},
		{
			"name":"Cube.015",
			"primitives":[
				{
					"attributes":{
						"POSITION":38,
						"TEXCOORD_0":39,
						"NORMAL":40
					},
					"indices":30
				}
			]
		},
		{
			"name":"Cube.019",
			"primitives":[
				{
					"attributes":{
						"POSITION":41,
						"TEXCOORD_0":42,
						"NORMAL":43
					},
					"indices":44
				}
			]
		},
		{
			"name":"Cube.009",
			"primitives":[
				{
					"attributes":{
						"POSITION":45,
						"TEXCOORD_0":46,
						"NORMAL":47
					},
					"indices":26
				}
			]
		},
		{
			"name":"Cube.020",
			"primitives":[
				{
					"attributes":{
						"POSITION":48,
						"TEXCOORD_0":49,
						"NORMAL":50
					},
					"indices":51
				}
			]
		},
		{
			"name":"Cube.011",
			"primitives":[
				{
					"attributes":{
						"POSITION":52,
						"TEXCOORD_0":53,
						"NORMAL":54
					},
					"indices":55
				}
			]
		},
		{
			"name":"Cube.012",
			"primitives":[
				{
					"attributes":{
						"POSITION":56,
						"TEXCOORD_0":57,
						"NORMAL":58
					},
					"indices":55
				}
			]
		}
	],
	"textures":[
		{
			"sampler":0,
			"source":0
		}
	],
	"images":[
		{
			"mimeType":"image/png",
			"name":"map",
			"uri":"map.png"
		}
	],
	"accessors":[
		{
			"bufferView":0,
			"componentType":5126,
			"count":261,
			"max":[
				19.617090225219727,
				19.82876205444336,
				117.57755279541016
			],
			"min":[
				-71.94426727294922,
				-4.737330436706543,
				-19.774906158447266
			],
			"type":"VEC3"
		},
		{
			"bufferView":1,
			"componentType":5126,
			"count":261,
			"type":"VEC2"
		},
		{
			"bufferView":2,
			"componentType":5126,
			"count":261,
			"type":"VEC3"
		},
		{
			"bufferView":3,
			"componentType":5123,
			"count":468,
			"type":"SCALAR"
		},
		{
			"bufferView":4,
			"componentType":5126,
			"count":80,
			"max":[
				33.22725296020508,
				7.868010520935059,
				19.146194458007812
			],
			"min":[
				31.376514434814453,
				-11.574189186096191,
				-17.432506561279297
			],
			"type":"VEC3"
		},
		{
			"bufferView":5,
			"componentType":5126,
			"count":80,
			"type":"VEC2"
		},
		{
			"bufferView":6,
			"componentType":5126,
			"count":80,
			"type":"VEC3"
		},
		{
			"bufferView":7,
			"componentType":5123,
			"count":168,
			"type":"SCALAR"
		},
		{
			"bufferView":8,
			"componentType":5126,
			"count":24,
			"max":[
				58.02969741821289,
				-2.856597900390625,
				127.48379516601562
			],
			"min":[
				-112.81561279296875,
				-11.398879051208496,
				-43.36151123046875
			],
			"type":"VEC3"
		},
		{
			"bufferView":9,
			"componentType":5126,
			"count":24,
			"type":"VEC2"
		},
		{
			"bufferView":10,
			"componentType":5126,
			"count":24,
			"type":"VEC3"
		},
		{
			"bufferView":11,
			"componentType":5123,
			"count":36,
			"type":"SCALAR"
		},
		{
			"bufferView":12,
			"componentType":5126,
			"count":24,
			"max":[
				19.75933265686035,
				43.48965835571289,
				-17.821701049804688
			],
			"min":[
				-19.75931739807129,
				-3.0183122158050537,
				-19.797658920288086
			],
			"type":"VEC3"
		},
		{
			"bufferView":13,
			"componentType":5126,
			"count":24,
			"type":"VEC2"
		},
		{
			"bufferView":14,
			"componentType":5126,
			"count":24,
			"type":"VEC3"
		},
		{
			"bufferView":15,
			"componentType":5123,
			"count":36,
			"type":"SCALAR"
		},
		{
			"bufferView":16,
			"componentType":5126,
			"count":24,
			"max":[
				19.797658920288086,
				43.48965835571289,
				19.75933074951172
			],
			"min":[
				17.82170295715332,
				-3.0183122158050537,
				-19.759319305419922
			],
			"type":"VEC3"
		},
		{
			"bufferView":17,
			"componentType":5126,
			"count":24,
			"type":"VEC2"
		},
		{
			"bufferView":18,
			"componentType":5126,
			"count":24,
			"type":"VEC3"
		},
		{
			"bufferView":19,
			"componentType":5123,
			"count":36,
			"type":"SCALAR"
		},
		{
			"bufferView":20,
			"componentType":5126,
			"count":24,
			"max":[
				19.430999755859375,
				43.48965835571289,
				19.85531234741211
			],
			"min":[
				-20.087648391723633,
				-3.0183122158050537,
				17.87935447692871
			],
			"type":"VEC3"
		},
		{
			"bufferView":21,
			"componentType":5126,
			"count":24,
			"type":"VEC2"
		},
		{
			"bufferView":22,
			"componentType":5126,
			"count":24,
			"type":"VEC3"
		},
		{
			"bufferView":23,
			"componentType":5126,
			"count":24,
			"max":[
				-70.18949127197266,
				43.48965835571289,
				120.0277328491211
			],
			"min":[
				-72.16548156738281,
				-3.0183122158050537,
				32.78323745727539
			],
			"type":"VEC3"
		},
		{
			"bufferView":24,
			"componentType":5126,
			"count":24,
			"type":"VEC2"
		},
		{
			"bufferView":25,
			"componentType":5126,
			"count":24,
			"type":"VEC3"
		},
		{
			"bufferView":26,
			"componentType":5123,
			"count":36,
			"type":"SCALAR"
		},
		{
			"bufferView":27,
			"componentType":5126,
			"count":24,
			"max":[
				-33.03773498535156,
				43.48965835571289,
				117.52227020263672
			],
			"min":[
				-72.55638885498047,
				-3.0183122158050537,
				115.54632568359375
			],
			"type":"VEC3"
		},
		{
			"bufferView":28,
			"componentType":5126,
			"count":24,
			"type":"VEC2"
		},
		{
			"bufferView":29,
			"componentType":5126,
			"count":24,
			"type":"VEC3"
		},
		{
			"bufferView":30,
			"componentType":5123,
			"count":36,
			"type":"SCALAR"
		},
		{
			"bufferView":31,
			"componentType":5126,
			"count":24,
			"max":[
				-13.13821792602539,
				43.489654541015625,
				37.038665771484375
			],
			"min":[
				-76.22016906738281,
				-4.218597412109375,
				-26.056140899658203
			],
			"type":"VEC3"
		},
		{
			"bufferView":32,
			"componentType":5126,
			"count":24,
			"type":"VEC2"
		},
		{
			"bufferView":33,
			"componentType":5126,
			"count":24,
			"type":"VEC3"
		},
		{
			"bufferView":34,
			"componentType":5123,
			"count":36,
			"type":"SCALAR"
		},
		{
			"bufferView":35,
			"componentType":5126,
			"count":24,
			"max":[
				-65.42852783203125,
				8.687405586242676,
				111.85750579833984
			],
			"min":[
				-74.8917236328125,
				-26.80026626586914,
				102.3943099975586
			],
			"type":"VEC3"
		},
		{
			"bufferView":36,
			"componentType":5126,
			"count":24,
			"type":"VEC2"
		},
		{
			"bufferView":37,
			"componentType":5126,
			"count":24,
			"type":"VEC3"
		},
		{
			"bufferView":38,
			"componentType":5126,
			"count":24,
			"max":[
				-28.96323013305664,
				8.687405586242676,
				112.00125122070312
			],
			"min":[
				-38.42641830444336,
				-26.80026626586914,
				102.53805541992188
			],
			"type":"VEC3"
		},
		{
			"bufferView":39,
			"componentType":5126,
			"count":24,
			"type":"VEC2"
		},
		{
			"bufferView":40,
			"componentType":5126,
			"count":24,
			"type":"VEC3"
		},
		{
			"bufferView":41,
			"componentType":5126,
			"count":24,
			"max":[
				-19.273202896118164,
				43.48965835571289,
				33.758758544921875
			],
			"min":[
				-34.34566879272461,
				-3.1221084594726562,
				17.91531753540039
			],
			"type":"VEC3"
		},
		{
			"bufferView":42,
			"componentType":5126,
			"count":24,
			"type":"VEC2"
		},
		{
			"bufferView":43,
			"componentType":5126,
			"count":24,
			"type":"VEC3"
		},
		{
			"bufferView":44,
			"componentType":5123,
			"count":36,
			"type":"SCALAR"
		},
		{
			"bufferView":45,
			"componentType":5126,
			"count":24,
			"max":[
				-32.31950759887695,
				43.48965835571289,
				120.03216552734375
			],
			"min":[
				-34.295501708984375,
				-3.0183122158050537,
				32.78767013549805
			],
			"type":"VEC3"
		},
		{
			"bufferView":46,
			"componentType":5126,
			"count":24,
			"type":"VEC2"
		},
		{
			"bufferView":47,
			"componentType":5126,
			"count":24,
			"type":"VEC3"
		},
		{
			"bufferView":48,
			"componentType":5126,
			"count":36,
			"max":[
				-33.8880729675293,
				-0.5527308583259583,
				69.52957916259766
			],
			"min":[
				-70.65449523925781,
				-4.332505226135254,
				32.76315689086914
			],
			"type":"VEC3"
		},
		{
			"bufferView":49,
			"componentType":5126,
			"count":36,
			"type":"VEC2"
		},
		{
			"bufferView":50,
			"componentType":5126,
			"count":36,
			"type":"VEC3"
		},
		{
			"bufferView":51,
			"componentType":5123,
			"count":60,
			"type":"SCALAR"
		},
		{
			"bufferView":52,
			"componentType":5126,
			"count":24,
			"max":[
				-28.958772659301758,
				22.967662811279297,
				108.24413299560547
			],
			"min":[
				-73.74707794189453,
				-3.4462318420410156,
				105.50325775146484
			],
			"type":"VEC3"
		},
		{
			"bufferView":53,
			"componentType":5126,
			"count":24,
			"type":"VEC2"
		},
		{
			"bufferView":54,
			"componentType":5126,
			"count":24,
			"type":"VEC3"
		},
		{
			"bufferView":55,
			"componentType":5123,
			"count":36,
			"type":"SCALAR"
		},
		{
			"bufferView":56,
			"componentType":5126,
			"count":24,
			"max":[
				-29.105680465698242,
				22.82793617248535,
				113.9597396850586
			],
			"min":[
				-73.89398956298828,
				-3.585958480834961,
				111.21886444091797
			],
			"type":"VEC3"
		},
		{
			"bufferView":57,
			"componentType":5126,
			"count":24,
			"type":"VEC2"
		},
		{
			"bufferView":58,
			"componentType":5126,
			"count":24,
			"type":"VEC3"
		}
	],
	"bufferViews":[
		{
			"buffer":0,
			"byteLength":3132,
			"byteOffset":0,
			"target":34962
		},
		{
			"buffer":0,
			"byteLength":2088,
			"byteOffset":3132,
			"target":34962
		},
		{
			"buffer":0,
			"byteLength":3132,
			"byteOffset":5220,
			"target":34962
		},
		{
			"buffer":0,
			"byteLength":936,
			"byteOffset":8352,
			"target":34963
		},
		{
			"buffer":0,
			"byteLength":960,
			"byteOffset":9288,
			"target":34962
		},
		{
			"buffer":0,
			"byteLength":640,
			"byteOffset":10248,
			"target":34962
		},
		{
			"buffer":0,
			"byteLength":960,
			"byteOffset":10888,
			"target":34962
		},
		{
			"buffer":0,
			"byteLength":336,
			"byteOffset":11848,
			"target":34963
		},
		{
			"buffer":0,
			"byteLength":288,
			"byteOffset":12184,
			"target":34962
		},
		{
			"buffer":0,
			"byteLength":192,
			"byteOffset":12472,
			"target":34962
		},
		{
			"buffer":0,
			"byteLength":288,
			"byteOffset":12664,
			"target":34962
		},
		{
			"buffer":0,
			"byteLength":72,
			"byteOffset":12952,
			"target":34963
		},
		{
			"buffer":0,
			"byteLength":288,
			"byteOffset":13024,
			"target":34962
		},
		{
			"buffer":0,
			"byteLength":192,
			"byteOffset":13312,
			"target":34962
		},
		{
			"buffer":0,
			"byteLength":288,
			"byteOffset":13504,
			"target":34962
		},
		{
			"buffer":0,
			"byteLength":72,
			"byteOffset":13792,
			"target":34963
		},
		{
			"buffer":0,
			"byteLength":288,
			"byteOffset":13864,
			"target":34962
		},
		{
			"buffer":0,
			"byteLength":192,
			"byteOffset":14152,
			"target":34962
		},
		{
			"buffer":0,
			"byteLength":288,
			"byteOffset":14344,
			"target":34962
		},
		{
			"buffer":0,
			"byteLength":72,
			"byteOffset":14632,
			"target":34963
		},
		{
			"buffer":0,
			"byteLength":288,
			"byteOffset":14704,
			"target":34962
		},
		{
			"buffer":0,
			"byteLength":192,
			"byteOffset":14992,
			"target":34962
		},
		{
			"buffer":0,
			"byteLength":288,
			"byteOffset":15184,
			"target":34962
		},
		{
			"buffer":0,
			"byteLength":288,
			"byteOffset":15472,
			"target":34962
		},
		{
			"buffer":0,
			"byteLength":192,
			"byteOffset":15760,
			"target":34962
		},
		{
			"buffer":0,
			"byteLength":288,
			"byteOffset":15952,
			"target":34962
		},
		{
			"buffer":0,
			"byteLength":72,
			"byteOffset":16240,
			"target":34963
		},
		{
			"buffer":0,
			"byteLength":288,
			"byteOffset":16312,
			"target":34962
		},
		{
			"buffer":0,
			"byteLength":192,
			"byteOffset":16600,
			"target":34962
		},
		{
			"buffer":0,
			"byteLength":288,
			"byteOffset":16792,
			"target":34962
		},
		{
			"buffer":0,
			"byteLength":72,
			"byteOffset":17080,
			"target":34963
		},
		{
			"buffer":0,
			"byteLength":288,
			"byteOffset":17152,
			"target":34962
		},
		{
			"buffer":0,
			"byteLength":192,
			"byteOffset":17440,
			"target":34962
		},
		{
			"buffer":0,
			"byteLength":288,
			"byteOffset":17632,
			"target":34962
		},
		{
			"buffer":0,
			"byteLength":72,
			"byteOffset":17920,
			"target":34963
		},
		{
			"buffer":0,
			"byteLength":288,
			"byteOffset":17992,
			"target":34962
		},
		{
			"buffer":0,
			"byteLength":192,
			"byteOffset":18280,
			"target":34962
		},
		{
			"buffer":0,
			"byteLength":288,
			"byteOffset":18472,
			"target":34962
		},
		{
			"buffer":0,
			"byteLength":288,
			"byteOffset":18760,
			"target":34962
		},
		{
			"buffer":0,
			"byteLength":192,
			"byteOffset":19048,
			"target":34962
		},
		{
			"buffer":0,
			"byteLength":288,
			"byteOffset":19240,
			"target":34962
		},
		{
			"buffer":0,
			"byteLength":288,
			"byteOffset":19528,
			"target":34962
		},
		{
			"buffer":0,
			"byteLength":192,
			"byteOffset":19816,
			"target":34962
		},
		{
			"buffer":0,
			"byteLength":288,
			"byteOffset":20008,
			"target":34962
		},
		{
			"buffer":0,
			"byteLength":72,
			"byteOffset":20296,
			"target":34963
		},
		{
			"buffer":0,
			"byteLength":288,
			"byteOffset":20368,
			"target":34962
		},
		{
			"buffer":0,
			"byteLength":192,
			"byteOffset":20656,
			"target":34962
		},
		{
			"buffer":0,
			"byteLength":288,
			"byteOffset":20848,
			"target":34962
		},
		{
			"buffer":0,
			"byteLength":432,
			"byteOffset":21136,
			"target":34962
		},
		{
			"buffer":0,
			"byteLength":288,
			"byteOffset":21568,
			"target":34962
		},
		{
			"buffer":0,
			"byteLength":432,
			"byteOffset":21856,
			"target":34962
		},
		{
			"buffer":0,
			"byteLength":120,
			"byteOffset":22288,
			"target":34963
		},
		{
			"buffer":0,
			"byteLength":288,
			"byteOffset":22408,
			"target":34962
		},
		{
			"buffer":0,
			"byteLength":192,
			"byteOffset":22696,
			"target":34962
		},
		{
			"buffer":0,
			"byteLength":288,
			"byteOffset":22888,
			"target":34962
		},
		{
			"buffer":0,
			"byteLength":72,
			"byteOffset":23176,
			"target":34963
		},
		{
			"buffer":0,
			"byteLength":288,
			"byteOffset":23248,
			"target":34962
		},
		{
			"buffer":0,
			"byteLength":192,
			"byteOffset":23536,
			"target":34962
		},
		{
			"buffer":0,
			"byteLength":288,
			"byteOffset":23728,
			"target":34962
		}
	],
	"samplers":[
		{
			"magFilter":9729,
			"minFilter":9987
		}
	],
	"buffers":[
		{
			"byteLength":24016,
			"uri":"map2.bin"
		}
	]
}
