{
	"asset":{
		"generator":"Khronos glTF Blender I/O v3.5.30",
		"version":"2.0"
	},
	"extensionsUsed":[
		"KHR_lights_punctual"
	],
	"extensionsRequired":[
		"KHR_lights_punctual"
	],
	"extensions":{
		"KHR_lights_punctual":{
			"lights":[
				{
					"color":[
						1,
						1,
						1
					],
					"intensity":1.3660000648815185,
					"type":"directional",
					"name":"sun"
				},
				{
					"color":[
						1,
						1,
						1
					],
					"intensity":0.3415000162203796,
					"type":"directional",
					"name":"reflect"
				}
			]
		}
	},
	"scene":0,
	"scenes":[
		{
			"name":"Scene",
			"nodes":[
				0,
				1,
				2,
				3,
				4,
				22,
				25
			]
		}
	],
	"nodes":[
		{
			"mesh":0,
			"name":"ground"
		},
		{
			"extensions":{
				"KHR_lights_punctual":{
					"light":0
				}
			},
			"name":"Sun",
			"rotation":[
				-0.8598043322563171,
				0.11895841360092163,
				-0.23034268617630005,
				0.43991804122924805
			],
			"translation":[
				27.253408432006836,
				81.49815368652344,
				-44.548831939697266
			]
		},
		{
			"extensions":{
				"KHR_lights_punctual":{
					"light":1
				}
			},
			"name":"Point",
			"rotation":[
				-0.7314322590827942,
				-0.4125117063522339,
				0.1996414214372635,
				0.5049596428871155
			],
			"translation":[
				-147.4042510986328,
				91.06305694580078,
				-59.87887191772461
			]
		},
		{
			"mesh":1,
			"name":"Cube.001"
		},
		{
			"name":"SPINNER",
			"translation":[
				-111.50690460205078,
				-4.654474258422852,
				-0.2871794104576111
			]
		},
		{
			"mesh":2,
			"name":"Cube"
		},
		{
			"mesh":3,
			"name":"Cube.002"
		},
		{
			"mesh":4,
			"name":"Cube.003"
		},
		{
			"mesh":5,
			"name":"Cube.004"
		},
		{
			"mesh":6,
			"name":"Cube.005"
		},
		{
			"mesh":7,
			"name":"Cube.006"
		},
		{
			"mesh":8,
			"name":"Cube.007"
		},
		{
			"mesh":9,
			"name":"Cube.008"
		},
		{
			"mesh":10,
			"name":"Cube.009"
		},
		{
			"mesh":11,
			"name":"Cube.010"
		},
		{
			"mesh":12,
			"name":"slope"
		},
		{
			"mesh":13,
			"name":"slope.001"
		},
		{
			"mesh":14,
			"name":"slope.002"
		},
		{
			"mesh":15,
			"name":"slope.003"
		},
		{
			"mesh":16,
			"name":"slope.004"
		},
		{
			"mesh":17,
			"name":"slope.005"
		},
		{
			"mesh":18,
			"name":"slope.006"
		},
		{
			"children":[
				5,
				6,
				7,
				8,
				9,
				10,
				11,
				12,
				13,
				14,
				15,
				16,
				17,
				18,
				19,
				20,
				21
			],
			"name":"hull"
		},
		{
			"mesh":19,
			"name":"block"
		},
		{
			"mesh":20,
			"name":"goal.001"
		},
		{
			"children":[
				23,
				24
			],
			"name":"goal"
		}
	],
	"materials":[
		{
			"doubleSided":true,
			"name":"maptext",
			"pbrMetallicRoughness":{
				"baseColorTexture":{
					"index":0
				},
				"metallicFactor":0,
				"roughnessFactor":0.5
			}
		}
	],
	"meshes":[
		{
			"name":"Cube",
			"primitives":[
				{
					"attributes":{
						"POSITION":0,
						"TEXCOORD_0":1,
						"NORMAL":2
					},
					"indices":3,
					"material":0
				}
			]
		},
		{
			"name":"Cube.013",
			"primitives":[
				{
					"attributes":{
						"POSITION":4,
						"TEXCOORD_0":5,
						"NORMAL":6
					},
					"indices":7,
					"material":0
				}
			]
		},
		{
			"name":"Cube.002",
			"primitives":[
				{
					"attributes":{
						"POSITION":8,
						"TEXCOORD_0":9,
						"NORMAL":10
					},
					"indices":11
				}
			]
		},
		{
			"name":"Cube.004",
			"primitives":[
				{
					"attributes":{
						"POSITION":12,
						"TEXCOORD_0":13,
						"NORMAL":14
					},
					"indices":15
				}
			]
		},
		{
			"name":"Cube.005",
			"primitives":[
				{
					"attributes":{
						"POSITION":16,
						"TEXCOORD_0":17,
						"NORMAL":18
					},
					"indices":19
				}
			]
		},
		{
			"name":"Cube.006",
			"primitives":[
				{
					"attributes":{
						"POSITION":20,
						"TEXCOORD_0":21,
						"NORMAL":22
					},
					"indices":19
				}
			]
		},
		{
			"name":"Cube.007",
			"primitives":[
				{
					"attributes":{
						"POSITION":23,
						"TEXCOORD_0":24,
						"NORMAL":25
					},
					"indices":26
				}
			]
		},
		{
			"name":"Cube.008",
			"primitives":[
				{
					"attributes":{
						"POSITION":27,
						"TEXCOORD_0":28,
						"NORMAL":29
					},
					"indices":26
				}
			]
		},
		{
			"name":"Cube.001",
			"primitives":[
				{
					"attributes":{
						"POSITION":30,
						"TEXCOORD_0":31,
						"NORMAL":32
					},
					"indices":26
				}
			]
		},
		{
			"name":"Cube.003",
			"primitives":[
				{
					"attributes":{
						"POSITION":33,
						"TEXCOORD_0":34,
						"NORMAL":35
					},
					"indices":26
				}
			]
		},
		{
			"name":"Cube.009",
			"primitives":[
				{
					"attributes":{
						"POSITION":36,
						"TEXCOORD_0":37,
						"NORMAL":38
					},
					"indices":26
				}
			]
		},
		{
			"name":"Cube.016",
			"primitives":[
				{
					"attributes":{
						"POSITION":39,
						"TEXCOORD_0":40,
						"NORMAL":41
					},
					"indices":26
				}
			]
		},
		{
			"name":"Cube.018",
			"primitives":[
				{
					"attributes":{
						"POSITION":42,
						"TEXCOORD_0":43,
						"NORMAL":44
					},
					"indices":45
				}
			]
		},
		{
			"name":"Cube.014",
			"primitives":[
				{
					"attributes":{
						"POSITION":46,
						"TEXCOORD_0":47,
						"NORMAL":48
					},
					"indices":49
				}
			]
		},
		{
			"name":"Cube.015",
			"primitives":[
				{
					"attributes":{
						"POSITION":50,
						"TEXCOORD_0":51,
						"NORMAL":52
					},
					"indices":49
				}
			]
		},
		{
			"name":"Cube.010",
			"primitives":[
				{
					"attributes":{
						"POSITION":53,
						"TEXCOORD_0":54,
						"NORMAL":55
					},
					"indices":11
				}
			]
		},
		{
			"name":"Cube.017",
			"primitives":[
				{
					"attributes":{
						"POSITION":56,
						"TEXCOORD_0":57,
						"NORMAL":58
					},
					"indices":59
				}
			]
		},
		{
			"name":"Cube.019",
			"primitives":[
				{
					"attributes":{
						"POSITION":60,
						"TEXCOORD_0":61,
						"NORMAL":62
					},
					"indices":63
				}
			]
		},
		{
			"name":"Cube.020",
			"primitives":[
				{
					"attributes":{
						"POSITION":64,
						"TEXCOORD_0":65,
						"NORMAL":66
					},
					"indices":67
				}
			]
		},
		{
			"name":"Cube.011",
			"primitives":[
				{
					"attributes":{
						"POSITION":68,
						"TEXCOORD_0":69,
						"NORMAL":70
					},
					"indices":15
				}
			]
		},
		{
			"name":"Cube.012",
			"primitives":[
				{
					"attributes":{
						"POSITION":71,
						"TEXCOORD_0":72,
						"NORMAL":73
					},
					"indices":15
				}
			]
		}
	],
	"textures":[
		{
			"sampler":0,
			"source":0
		}
	],
	"images":[
		{
			"mimeType":"image/png",
			"name":"map",
			"uri":"map.png"
		}
	],
	"accessors":[
		{
			"bufferView":0,
			"componentType":5126,
			"count":292,
			"max":[
				19.617090225219727,
				15.337149620056152,
				46.97504425048828
			],
			"min":[
				-205.2632598876953,
				-9.134735107421875,
				-43.58831024169922
			],
			"type":"VEC3"
		},
		{
			"bufferView":1,
			"componentType":5126,
			"count":292,
			"type":"VEC2"
		},
		{
			"bufferView":2,
			"componentType":5126,
			"count":292,
			"type":"VEC3"
		},
		{
			"bufferView":3,
			"componentType":5123,
			"count":528,
			"type":"SCALAR"
		},
		{
			"bufferView":4,
			"componentType":5126,
			"count":76,
			"max":[
				-194.92660522460938,
				12.103988647460938,
				18.991971969604492
			],
			"min":[
				-196.77734375,
				-7.3382110595703125,
				-17.586729049682617
			],
			"type":"VEC3"
		},
		{
			"bufferView":5,
			"componentType":5126,
			"count":76,
			"type":"VEC2"
		},
		{
			"bufferView":6,
			"componentType":5126,
			"count":76,
			"type":"VEC3"
		},
		{
			"bufferView":7,
			"componentType":5123,
			"count":168,
			"type":"SCALAR"
		},
		{
			"bufferView":8,
			"componentType":5126,
			"count":24,
			"max":[
				19.575883865356445,
				-2.7874085903167725,
				19.759323120117188
			],
			"min":[
				-19.94276237487793,
				-4.763344764709473,
				-19.759323120117188
			],
			"type":"VEC3"
		},
		{
			"bufferView":9,
			"componentType":5126,
			"count":24,
			"type":"VEC2"
		},
		{
			"bufferView":10,
			"componentType":5126,
			"count":24,
			"type":"VEC3"
		},
		{
			"bufferView":11,
			"componentType":5123,
			"count":36,
			"type":"SCALAR"
		},
		{
			"bufferView":12,
			"componentType":5126,
			"count":24,
			"max":[
				-67.90093231201172,
				-7.222702503204346,
				51.9178352355957
			],
			"min":[
				-210.12017822265625,
				-9.19864559173584,
				-44.203792572021484
			],
			"type":"VEC3"
		},
		{
			"bufferView":13,
			"componentType":5126,
			"count":24,
			"type":"VEC2"
		},
		{
			"bufferView":14,
			"componentType":5126,
			"count":24,
			"type":"VEC3"
		},
		{
			"bufferView":15,
			"componentType":5123,
			"count":36,
			"type":"SCALAR"
		},
		{
			"bufferView":16,
			"componentType":5126,
			"count":24,
			"max":[
				-203.28353881835938,
				41.237022399902344,
				19.94785499572754
			],
			"min":[
				-205.25949096679688,
				-7.6540985107421875,
				-19.5707950592041
			],
			"type":"VEC3"
		},
		{
			"bufferView":17,
			"componentType":5126,
			"count":24,
			"type":"VEC2"
		},
		{
			"bufferView":18,
			"componentType":5126,
			"count":24,
			"type":"VEC3"
		},
		{
			"bufferView":19,
			"componentType":5123,
			"count":36,
			"type":"SCALAR"
		},
		{
			"bufferView":20,
			"componentType":5126,
			"count":24,
			"max":[
				19.797657012939453,
				45.87281036376953,
				19.75933074951172
			],
			"min":[
				17.82170295715332,
				-3.0183122158050537,
				-19.759319305419922
			],
			"type":"VEC3"
		},
		{
			"bufferView":21,
			"componentType":5126,
			"count":24,
			"type":"VEC2"
		},
		{
			"bufferView":22,
			"componentType":5126,
			"count":24,
			"type":"VEC3"
		},
		{
			"bufferView":23,
			"componentType":5126,
			"count":24,
			"max":[
				34.691741943359375,
				46.951629638671875,
				-17.731407165527344
			],
			"min":[
				-68.32312774658203,
				-22.712846755981445,
				-19.707372665405273
			],
			"type":"VEC3"
		},
		{
			"bufferView":24,
			"componentType":5126,
			"count":24,
			"type":"VEC2"
		},
		{
			"bufferView":25,
			"componentType":5126,
			"count":24,
			"type":"VEC3"
		},
		{
			"bufferView":26,
			"componentType":5123,
			"count":36,
			"type":"SCALAR"
		},
		{
			"bufferView":27,
			"componentType":5126,
			"count":24,
			"max":[
				34.579444885253906,
				46.951629638671875,
				19.902202606201172
			],
			"min":[
				-68.43543243408203,
				-22.71285057067871,
				17.926237106323242
			],
			"type":"VEC3"
		},
		{
			"bufferView":28,
			"componentType":5126,
			"count":24,
			"type":"VEC2"
		},
		{
			"bufferView":29,
			"componentType":5126,
			"count":24,
			"type":"VEC3"
		},
		{
			"bufferView":30,
			"componentType":5126,
			"count":24,
			"max":[
				-93.93974304199219,
				46.951629638671875,
				-41.726318359375
			],
			"min":[
				-131.92459106445312,
				-22.712844848632812,
				-43.70228576660156
			],
			"type":"VEC3"
		},
		{
			"bufferView":31,
			"componentType":5126,
			"count":24,
			"type":"VEC2"
		},
		{
			"bufferView":32,
			"componentType":5126,
			"count":24,
			"type":"VEC3"
		},
		{
			"bufferView":33,
			"componentType":5126,
			"count":24,
			"max":[
				-94.3231201171875,
				46.951629638671875,
				47.01835250854492
			],
			"min":[
				-132.30796813964844,
				-22.712844848632812,
				45.042388916015625
			],
			"type":"VEC3"
		},
		{
			"bufferView":34,
			"componentType":5126,
			"count":24,
			"type":"VEC2"
		},
		{
			"bufferView":35,
			"componentType":5126,
			"count":24,
			"type":"VEC3"
		},
		{
			"bufferView":36,
			"componentType":5126,
			"count":24,
			"max":[
				-156.669677734375,
				46.951629638671875,
				20.17929458618164
			],
			"min":[
				-206.44406127929688,
				-22.712844848632812,
				18.20332908630371
			],
			"type":"VEC3"
		},
		{
			"bufferView":37,
			"componentType":5126,
			"count":24,
			"type":"VEC2"
		},
		{
			"bufferView":38,
			"componentType":5126,
			"count":24,
			"type":"VEC3"
		},
		{
			"bufferView":39,
			"componentType":5126,
			"count":24,
			"max":[
				-156.7800750732422,
				46.951629638671875,
				-17.357542037963867
			],
			"min":[
				-206.55445861816406,
				-22.712844848632812,
				-19.333507537841797
			],
			"type":"VEC3"
		},
		{
			"bufferView":40,
			"componentType":5126,
			"count":24,
			"type":"VEC2"
		},
		{
			"bufferView":41,
			"componentType":5126,
			"count":24,
			"type":"VEC3"
		},
		{
			"bufferView":42,
			"componentType":5126,
			"count":24,
			"max":[
				-130.6996612548828,
				46.951629638671875,
				46.4852294921875
			],
			"min":[
				-158.1118621826172,
				-22.712844848632812,
				18.261398315429688
			],
			"type":"VEC3"
		},
		{
			"bufferView":43,
			"componentType":5126,
			"count":24,
			"type":"VEC2"
		},
		{
			"bufferView":44,
			"componentType":5126,
			"count":24,
			"type":"VEC3"
		},
		{
			"bufferView":45,
			"componentType":5123,
			"count":36,
			"type":"SCALAR"
		},
		{
			"bufferView":46,
			"componentType":5126,
			"count":24,
			"max":[
				-191.07044982910156,
				23.45342254638672,
				-12.610095024108887
			],
			"min":[
				-200.5336456298828,
				-12.034249305725098,
				-22.073284149169922
			],
			"type":"VEC3"
		},
		{
			"bufferView":47,
			"componentType":5126,
			"count":24,
			"type":"VEC2"
		},
		{
			"bufferView":48,
			"componentType":5126,
			"count":24,
			"type":"VEC3"
		},
		{
			"bufferView":49,
			"componentType":5123,
			"count":36,
			"type":"SCALAR"
		},
		{
			"bufferView":50,
			"componentType":5126,
			"count":24,
			"max":[
				-191.38671875,
				23.45342254638672,
				23.510196685791016
			],
			"min":[
				-200.84991455078125,
				-12.034249305725098,
				14.04700756072998
			],
			"type":"VEC3"
		},
		{
			"bufferView":51,
			"componentType":5126,
			"count":24,
			"type":"VEC2"
		},
		{
			"bufferView":52,
			"componentType":5126,
			"count":24,
			"type":"VEC3"
		},
		{
			"bufferView":53,
			"componentType":5126,
			"count":24,
			"max":[
				-19.683311462402344,
				-2.783975601196289,
				21.760272979736328
			],
			"min":[
				-68.4408187866211,
				-9.211686134338379,
				-21.760272979736328
			],
			"type":"VEC3"
		},
		{
			"bufferView":54,
			"componentType":5126,
			"count":24,
			"type":"VEC2"
		},
		{
			"bufferView":55,
			"componentType":5126,
			"count":24,
			"type":"VEC3"
		},
		{
			"bufferView":56,
			"componentType":5126,
			"count":24,
			"max":[
				-66.8065185546875,
				46.951629638671875,
				-17.728525161743164
			],
			"min":[
				-94.85417175292969,
				-22.712844848632812,
				-43.10081481933594
			],
			"type":"VEC3"
		},
		{
			"bufferView":57,
			"componentType":5126,
			"count":24,
			"type":"VEC2"
		},
		{
			"bufferView":58,
			"componentType":5126,
			"count":24,
			"type":"VEC3"
		},
		{
			"bufferView":59,
			"componentType":5123,
			"count":36,
			"type":"SCALAR"
		},
		{
			"bufferView":60,
			"componentType":5126,
			"count":24,
			"max":[
				-67.03713989257812,
				46.951629638671875,
				46.48970031738281
			],
			"min":[
				-94.8053207397461,
				-22.712844848632812,
				17.867034912109375
			],
			"type":"VEC3"
		},
		{
			"bufferView":61,
			"componentType":5126,
			"count":24,
			"type":"VEC2"
		},
		{
			"bufferView":62,
			"componentType":5126,
			"count":24,
			"type":"VEC3"
		},
		{
			"bufferView":63,
			"componentType":5123,
			"count":36,
			"type":"SCALAR"
		},
		{
			"bufferView":64,
			"componentType":5126,
			"count":24,
			"max":[
				-130.68997192382812,
				46.951629638671875,
				-17.296226501464844
			],
			"min":[
				-158.32504272460938,
				-22.712844848632812,
				-43.1569709777832
			],
			"type":"VEC3"
		},
		{
			"bufferView":65,
			"componentType":5126,
			"count":24,
			"type":"VEC2"
		},
		{
			"bufferView":66,
			"componentType":5126,
			"count":24,
			"type":"VEC3"
		},
		{
			"bufferView":67,
			"componentType":5123,
			"count":36,
			"type":"SCALAR"
		},
		{
			"bufferView":68,
			"componentType":5126,
			"count":24,
			"max":[
				-194.920654296875,
				5.111082077026367,
				23.17441177368164
			],
			"min":[
				-197.66152954101562,
				-21.302812576293945,
				-21.613895416259766
			],
			"type":"VEC3"
		},
		{
			"bufferView":69,
			"componentType":5126,
			"count":24,
			"type":"VEC2"
		},
		{
			"bufferView":70,
			"componentType":5126,
			"count":24,
			"type":"VEC3"
		},
		{
			"bufferView":71,
			"componentType":5126,
			"count":24,
			"max":[
				-200.63626098632812,
				4.97135591506958,
				23.027502059936523
			],
			"min":[
				-203.37713623046875,
				-21.44253921508789,
				-21.760805130004883
			],
			"type":"VEC3"
		},
		{
			"bufferView":72,
			"componentType":5126,
			"count":24,
			"type":"VEC2"
		},
		{
			"bufferView":73,
			"componentType":5126,
			"count":24,
			"type":"VEC3"
		}
	],
	"bufferViews":[
		{
			"buffer":0,
			"byteLength":3504,
			"byteOffset":0,
			"target":34962
		},
		{
			"buffer":0,
			"byteLength":2336,
			"byteOffset":3504,
			"target":34962
		},
		{
			"buffer":0,
			"byteLength":3504,
			"byteOffset":5840,
			"target":34962
		},
		{
			"buffer":0,
			"byteLength":1056,
			"byteOffset":9344,
			"target":34963
		},
		{
			"buffer":0,
			"byteLength":912,
			"byteOffset":10400,
			"target":34962
		},
		{
			"buffer":0,
			"byteLength":608,
			"byteOffset":11312,
			"target":34962
		},
		{
			"buffer":0,
			"byteLength":912,
			"byteOffset":11920,
			"target":34962
		},
		{
			"buffer":0,
			"byteLength":336,
			"byteOffset":12832,
			"target":34963
		},
		{
			"buffer":0,
			"byteLength":288,
			"byteOffset":13168,
			"target":34962
		},
		{
			"buffer":0,
			"byteLength":192,
			"byteOffset":13456,
			"target":34962
		},
		{
			"buffer":0,
			"byteLength":288,
			"byteOffset":13648,
			"target":34962
		},
		{
			"buffer":0,
			"byteLength":72,
			"byteOffset":13936,
			"target":34963
		},
		{
			"buffer":0,
			"byteLength":288,
			"byteOffset":14008,
			"target":34962
		},
		{
			"buffer":0,
			"byteLength":192,
			"byteOffset":14296,
			"target":34962
		},
		{
			"buffer":0,
			"byteLength":288,
			"byteOffset":14488,
			"target":34962
		},
		{
			"buffer":0,
			"byteLength":72,
			"byteOffset":14776,
			"target":34963
		},
		{
			"buffer":0,
			"byteLength":288,
			"byteOffset":14848,
			"target":34962
		},
		{
			"buffer":0,
			"byteLength":192,
			"byteOffset":15136,
			"target":34962
		},
		{
			"buffer":0,
			"byteLength":288,
			"byteOffset":15328,
			"target":34962
		},
		{
			"buffer":0,
			"byteLength":72,
			"byteOffset":15616,
			"target":34963
		},
		{
			"buffer":0,
			"byteLength":288,
			"byteOffset":15688,
			"target":34962
		},
		{
			"buffer":0,
			"byteLength":192,
			"byteOffset":15976,
			"target":34962
		},
		{
			"buffer":0,
			"byteLength":288,
			"byteOffset":16168,
			"target":34962
		},
		{
			"buffer":0,
			"byteLength":288,
			"byteOffset":16456,
			"target":34962
		},
		{
			"buffer":0,
			"byteLength":192,
			"byteOffset":16744,
			"target":34962
		},
		{
			"buffer":0,
			"byteLength":288,
			"byteOffset":16936,
			"target":34962
		},
		{
			"buffer":0,
			"byteLength":72,
			"byteOffset":17224,
			"target":34963
		},
		{
			"buffer":0,
			"byteLength":288,
			"byteOffset":17296,
			"target":34962
		},
		{
			"buffer":0,
			"byteLength":192,
			"byteOffset":17584,
			"target":34962
		},
		{
			"buffer":0,
			"byteLength":288,
			"byteOffset":17776,
			"target":34962
		},
		{
			"buffer":0,
			"byteLength":288,
			"byteOffset":18064,
			"target":34962
		},
		{
			"buffer":0,
			"byteLength":192,
			"byteOffset":18352,
			"target":34962
		},
		{
			"buffer":0,
			"byteLength":288,
			"byteOffset":18544,
			"target":34962
		},
		{
			"buffer":0,
			"byteLength":288,
			"byteOffset":18832,
			"target":34962
		},
		{
			"buffer":0,
			"byteLength":192,
			"byteOffset":19120,
			"target":34962
		},
		{
			"buffer":0,
			"byteLength":288,
			"byteOffset":19312,
			"target":34962
		},
		{
			"buffer":0,
			"byteLength":288,
			"byteOffset":19600,
			"target":34962
		},
		{
			"buffer":0,
			"byteLength":192,
			"byteOffset":19888,
			"target":34962
		},
		{
			"buffer":0,
			"byteLength":288,
			"byteOffset":20080,
			"target":34962
		},
		{
			"buffer":0,
			"byteLength":288,
			"byteOffset":20368,
			"target":34962
		},
		{
			"buffer":0,
			"byteLength":192,
			"byteOffset":20656,
			"target":34962
		},
		{
			"buffer":0,
			"byteLength":288,
			"byteOffset":20848,
			"target":34962
		},
		{
			"buffer":0,
			"byteLength":288,
			"byteOffset":21136,
			"target":34962
		},
		{
			"buffer":0,
			"byteLength":192,
			"byteOffset":21424,
			"target":34962
		},
		{
			"buffer":0,
			"byteLength":288,
			"byteOffset":21616,
			"target":34962
		},
		{
			"buffer":0,
			"byteLength":72,
			"byteOffset":21904,
			"target":34963
		},
		{
			"buffer":0,
			"byteLength":288,
			"byteOffset":21976,
			"target":34962
		},
		{
			"buffer":0,
			"byteLength":192,
			"byteOffset":22264,
			"target":34962
		},
		{
			"buffer":0,
			"byteLength":288,
			"byteOffset":22456,
			"target":34962
		},
		{
			"buffer":0,
			"byteLength":72,
			"byteOffset":22744,
			"target":34963
		},
		{
			"buffer":0,
			"byteLength":288,
			"byteOffset":22816,
			"target":34962
		},
		{
			"buffer":0,
			"byteLength":192,
			"byteOffset":23104,
			"target":34962
		},
		{
			"buffer":0,
			"byteLength":288,
			"byteOffset":23296,
			"target":34962
		},
		{
			"buffer":0,
			"byteLength":288,
			"byteOffset":23584,
			"target":34962
		},
		{
			"buffer":0,
			"byteLength":192,
			"byteOffset":23872,
			"target":34962
		},
		{
			"buffer":0,
			"byteLength":288,
			"byteOffset":24064,
			"target":34962
		},
		{
			"buffer":0,
			"byteLength":288,
			"byteOffset":24352,
			"target":34962
		},
		{
			"buffer":0,
			"byteLength":192,
			"byteOffset":24640,
			"target":34962
		},
		{
			"buffer":0,
			"byteLength":288,
			"byteOffset":24832,
			"target":34962
		},
		{
			"buffer":0,
			"byteLength":72,
			"byteOffset":25120,
			"target":34963
		},
		{
			"buffer":0,
			"byteLength":288,
			"byteOffset":25192,
			"target":34962
		},
		{
			"buffer":0,
			"byteLength":192,
			"byteOffset":25480,
			"target":34962
		},
		{
			"buffer":0,
			"byteLength":288,
			"byteOffset":25672,
			"target":34962
		},
		{
			"buffer":0,
			"byteLength":72,
			"byteOffset":25960,
			"target":34963
		},
		{
			"buffer":0,
			"byteLength":288,
			"byteOffset":26032,
			"target":34962
		},
		{
			"buffer":0,
			"byteLength":192,
			"byteOffset":26320,
			"target":34962
		},
		{
			"buffer":0,
			"byteLength":288,
			"byteOffset":26512,
			"target":34962
		},
		{
			"buffer":0,
			"byteLength":72,
			"byteOffset":26800,
			"target":34963
		},
		{
			"buffer":0,
			"byteLength":288,
			"byteOffset":26872,
			"target":34962
		},
		{
			"buffer":0,
			"byteLength":192,
			"byteOffset":27160,
			"target":34962
		},
		{
			"buffer":0,
			"byteLength":288,
			"byteOffset":27352,
			"target":34962
		},
		{
			"buffer":0,
			"byteLength":288,
			"byteOffset":27640,
			"target":34962
		},
		{
			"buffer":0,
			"byteLength":192,
			"byteOffset":27928,
			"target":34962
		},
		{
			"buffer":0,
			"byteLength":288,
			"byteOffset":28120,
			"target":34962
		}
	],
	"samplers":[
		{
			"magFilter":9729,
			"minFilter":9987
		}
	],
	"buffers":[
		{
			"byteLength":28408,
			"uri":"map3.bin"
		}
	]
}
